<svg viewBox="0 0 40 49" xmlns="http://www.w3.org/2000/svg" xmlns:xlink="http://www.w3.org/1999/xlink" width="40.000000" height="49.000000" fill="none" customFrame="#000000">
	<g id="Arrow">
		<path id="Vector" d="M4.08245 8.3509L0 0L4.34751 2.06524L8.84426 0.599657L4.08245 8.3509Z" fill="rgb(245,245,247)" fill-rule="nonzero" transform="matrix(-0.383075,0.923717,0.920652,0.390383,26.1196,37.5703)" />
		<path id="Vector" d="M32.2749 27.9219L32.2947 27.8336L32.3155 27.7345L32.3567 27.532L32.4357 27.1194C32.4873 26.8426 32.5356 26.5632 32.5817 26.2833C32.6734 25.7233 32.7552 25.1591 32.8276 24.5937C32.9722 23.4623 33.0783 22.3262 33.146 21.1854C33.2124 20.0482 33.2387 18.9056 33.2151 17.7679C33.1915 16.6301 33.1196 15.4935 32.9846 14.3709C32.8535 13.2498 32.6481 12.1384 32.3699 11.0438C32.0954 9.95822 31.72 8.89993 31.2485 7.8824C30.7829 6.87339 30.187 5.92801 29.4756 5.06975C28.7604 4.21488 27.9113 3.47816 26.9606 2.88742C26.7235 2.73905 26.4721 2.60421 26.2174 2.47587C25.9627 2.34753 25.7042 2.22785 25.4419 2.11468C24.9138 1.8895 24.373 1.69477 23.8221 1.53146C22.7121 1.2045 21.5723 0.985587 20.419 0.877845C19.2545 0.769302 18.0834 0.746315 16.9155 0.809072C15.7406 0.871701 14.5703 1.00061 13.4103 1.19517C11.0842 1.58074 8.79147 2.19157 6.54928 2.95241C5.42846 3.33328 4.321 3.75187 3.22689 4.20819C2.6802 4.43635 2.13735 4.67354 1.59835 4.91975C1.06044 5.16722 0.525282 5.42228 0 5.69683C0.513755 5.4017 1.03849 5.12553 1.56706 4.85639C2.09564 4.58726 2.63025 4.32949 3.1687 4.07931C4.24561 3.58003 5.33972 3.11631 6.45103 2.68815C8.67181 1.83471 10.9579 1.12694 13.3038 0.641743C14.479 0.396436 15.6674 0.21798 16.8633 0.107261C18.0674 -0.00550584 19.2783 -0.0293979 20.486 0.035782C21.7047 0.101303 22.914 0.284305 24.0965 0.582175C24.6913 0.734124 25.2766 0.919813 25.8497 1.13832C26.1369 1.24662 26.4209 1.36503 26.7015 1.49355C26.982 1.62135 27.257 1.75836 27.5364 1.90023C28.6496 2.48218 29.6614 3.23571 30.5338 4.13238C31.402 5.03018 32.1486 6.03511 32.7552 7.12211C33.3571 8.19847 33.8572 9.32725 34.2492 10.4942C34.6381 11.6508 34.9498 12.8313 35.1823 14.0281C35.4184 15.2195 35.5874 16.4205 35.7038 17.6238C35.8201 18.8271 35.8844 20.0325 35.9058 21.2379C35.9272 22.4433 35.9058 23.6482 35.8437 24.8531C35.8123 25.4553 35.7707 26.0582 35.7191 26.6618C35.6935 26.9636 35.6643 27.2659 35.6313 27.5688L35.5764 28.0264L35.5479 28.2576L35.532 28.3757L35.5139 28.504L32.2749 27.9219Z" fill="rgb(245,245,247)" fill-rule="nonzero" transform="matrix(-0.383075,0.923717,0.920652,0.390383,13.7577,0)" />
	</g>
</svg>
