<svg viewBox="0 0 15 15" xmlns="http://www.w3.org/2000/svg" xmlns:xlink="http://www.w3.org/1999/xlink" width="15.000000" height="15.000000" fill="none" customFrame="#000000">
	<defs>
		<clipPath id="clipPath_3">
			<rect width="15.000000" height="15.000000" x="0.000000" y="0.000000" fill="rgb(255,255,255)" />
		</clipPath>
	</defs>
	<g id="Camera">
		<g id="camera 1" clip-path="url(#clipPath_3)" customFrame="url(#clipPath_3)">
			<rect id="camera 1" width="15.000000" height="15.000000" x="0.000000" y="0.000000" fill="rgb(255,255,255)" fill-opacity="0" />
			<g id="Group">
				<path id="Vector" d="M5.03906 11.7539C4.46484 11.6074 4.01367 11.0859 4.01367 10.5645C4.01367 10.4766 3.87305 10.4648 2.625 10.4473C1.28906 10.4297 1.21875 10.4238 0.955078 10.2891C0.621094 10.1191 0.316406 9.81445 0.134766 9.46289L0 9.19922L0 5.21484L0 1.23047L0.134766 0.966797C0.328125 0.597656 0.638672 0.292969 0.990234 0.134766L1.28906 0L7.4707 0L13.6523 0L13.957 0.140625C14.3496 0.316406 14.6895 0.679688 14.8477 1.10742C14.9707 1.43555 14.9707 1.50586 14.9707 5.20898C14.9707 8.39649 14.959 9.01758 14.8828 9.26953C14.7715 9.64453 14.3848 10.084 13.998 10.2832C13.7227 10.4238 13.6699 10.4297 12.3223 10.4473L10.9395 10.4707L10.8984 10.6816C10.8164 11.1152 10.582 11.4434 10.1953 11.6484C9.9668 11.7715 9.89648 11.7773 7.58789 11.7891C6.28125 11.7949 5.13867 11.7773 5.03906 11.7539ZM9.9668 10.9102C10.1074 10.7871 10.1309 10.7168 10.1602 10.3184C10.1895 9.9668 10.2246 9.84375 10.3125 9.7793C10.4004 9.71484 10.7344 9.69727 11.9473 9.69727C13.3477 9.69727 13.4883 9.68555 13.7109 9.58008C13.8633 9.50391 13.998 9.38086 14.0801 9.23438L14.209 9.00586L14.1973 5.16211C14.1797 1.39453 14.1797 1.32422 14.0566 1.16602C13.9922 1.07813 13.8633 0.949219 13.7754 0.884766C13.6172 0.761719 13.582 0.761719 7.4707 0.761719C1.35938 0.761719 1.32422 0.761719 1.16602 0.884766C1.07812 0.949219 0.949219 1.07813 0.884766 1.16602C0.761719 1.32422 0.761719 1.37695 0.761719 5.21484C0.761719 9.05274 0.761719 9.10547 0.884766 9.26367C1.18359 9.66797 1.16016 9.66211 2.9707 9.69727C4.83398 9.73242 4.77539 9.71484 4.77539 10.2305C4.77539 10.5762 4.85742 10.8105 5.02734 10.9395C5.14453 11.0332 5.36719 11.0449 7.48242 11.0449L9.80859 11.0449L9.9668 10.9102Z" fill="rgb(0,0,0)" fill-rule="nonzero" transform="matrix(1,0,0,-1,0.0292969,13.3887)" />
				<path id="Vector" d="M0.486328 1.33022C0.228516 1.26576 0 0.972795 0 0.720842C0 0.17006 0.521484 -0.163924 0.996094 0.0821698C1.24219 0.211076 1.34766 0.392717 1.34766 0.703264C1.34766 1.17201 0.955078 1.45326 0.486328 1.33022Z" fill="rgb(0,0,0)" fill-rule="nonzero" transform="matrix(1,0,0,-1,11.8945,6.02942)" />
				<path id="Vector" d="M2.62237 6.87392C1.29815 6.49892 0.354789 5.49697 0.0676791 4.14346C-0.283883 2.49111 0.770804 0.668846 2.38213 0.15908C2.92119 -0.0108418 3.76495 -0.0518574 4.28643 0.0711895C5.62823 0.387596 6.6419 1.43056 6.92901 2.78408C7.09307 3.56338 6.99346 4.28408 6.6126 5.06338C6.22588 5.84267 5.4876 6.49306 4.65557 6.78603C4.1751 6.96181 3.09698 7.00283 2.62237 6.87392ZM4.38018 6.04189C5.66924 5.61416 6.47198 4.20205 6.17315 2.90127C5.74541 1.05556 3.72393 0.182518 2.09502 1.1376C0.050101 2.33291 0.501273 5.47353 2.79815 6.10049C3.25518 6.22353 3.89971 6.2001 4.38018 6.04189Z" fill="rgb(0,0,0)" fill-rule="nonzero" transform="matrix(1,0,0,-1,3.99878,11.6493)" />
			</g>
		</g>
	</g>
</svg>
