<svg viewBox="0 0 15 15" xmlns="http://www.w3.org/2000/svg" xmlns:xlink="http://www.w3.org/1999/xlink" width="15.000000" height="15.000000" fill="none" customFrame="#000000">
	<defs>
		<clipPath id="clipPath_4">
			<rect width="15.000000" height="15.000000" x="0.000000" y="0.000000" fill="rgb(255,255,255)" />
		</clipPath>
	</defs>
	<g id="Edit">
		<g id="edit 1" clip-path="url(#clipPath_4)" customFrame="url(#clipPath_4)">
			<rect id="edit 1" width="15.000000" height="15.000000" x="0.000000" y="0.000000" fill="rgb(255,255,255)" fill-opacity="0" />
			<g id="Group">
				<path id="Vector" d="M8.41699 10.8984C8.18848 10.8398 8.08301 10.79 7.88086 10.6553C7.75195 10.5703 1.0752 3.92871 0.963867 3.77344C0.902344 3.68848 0 0.486328 0 0.351563C0 0.1875 0.19043 0 0.357422 0C0.486328 0 3.69141 0.905273 3.77344 0.963867C3.81738 0.996094 5.36426 2.53418 7.21289 4.38574C9.66504 6.84082 10.6025 7.79883 10.6904 7.93652C10.9072 8.27637 10.998 8.72754 10.9307 9.12891C10.9102 9.24317 10.8428 9.43652 10.7754 9.58008C10.6699 9.80274 10.6143 9.87012 10.2422 10.2422C9.87012 10.6143 9.80273 10.667 9.58008 10.7754C9.18457 10.9658 8.81836 11.0039 8.41699 10.8984ZM9.2666 10.1016C9.42773 10.0225 10.0225 9.42481 10.1104 9.25781C10.1689 9.14649 10.1807 9.08203 10.1807 8.84766C10.1807 8.49317 10.1279 8.37891 9.79395 8.03027L9.55371 7.77832L8.66602 8.66602L7.77832 9.55371L8.03613 9.79981C8.17969 9.93457 8.35254 10.0723 8.42285 10.1074C8.67773 10.2305 9.01758 10.2275 9.2666 10.1016ZM8.14453 8.12988L9.00879 7.26563L6.27539 4.53516L3.54492 1.80176L2.68066 2.66602C2.20605 3.14063 1.81641 3.54199 1.81641 3.55957C1.81641 3.59766 7.21289 8.99414 7.25098 8.99414C7.26855 8.99414 7.66992 8.60449 8.14453 8.12988ZM2.80664 1.43848C2.69824 1.40332 0.922852 0.914063 0.916992 0.916992C0.914062 0.919922 1.00488 1.25391 1.11621 1.65527C1.22754 2.05957 1.34766 2.49023 1.38281 2.61914L1.44434 2.84766L2.1416 2.15039C2.52832 1.76367 2.82422 1.44434 2.80664 1.43848Z" fill="rgb(0,0,0)" fill-rule="nonzero" transform="matrix(1,0,0,-1,4.04297,11.0156)" />
				<path id="Vector" d="M1.3916 13.3983C0.779297 13.2343 0.307617 12.7948 0.0908203 12.1854L0 11.9364L0 6.73623C0 1.77627 0.00292969 1.52725 0.0527344 1.36318C0.161133 1.01162 0.27832 0.815332 0.541992 0.55166C0.726562 0.36709 0.84668 0.27334 1.00195 0.197168C1.42969 -0.0166993 1.01074 -0.00498058 7.19238 0.00380848L12.7441 0.0125975L12.9404 0.0887694C13.5176 0.314355 13.9248 0.727441 14.1152 1.28701C14.1797 1.47451 14.1797 1.50381 14.1885 3.36709C14.1973 5.06338 14.1943 5.26553 14.1504 5.34756C14.0889 5.46475 13.9629 5.53506 13.8164 5.53506C13.7197 5.53506 13.6729 5.51455 13.585 5.43545L13.4766 5.33584L13.4619 3.47842C13.4473 1.62979 13.4473 1.62393 13.3799 1.45693C13.2598 1.15811 13.0342 0.932519 12.7354 0.812402L12.5684 0.745019L7.19531 0.73623C3.64746 0.733301 1.7666 0.73916 1.6582 0.759668C1.30664 0.824121 0.993164 1.06436 0.84668 1.38369L0.761719 1.56533L0.761719 6.72158L0.761719 11.8778L0.84668 12.0624C0.955078 12.2968 1.2041 12.5341 1.44141 12.6308L1.61133 12.6981L3.45703 12.7128C5.51953 12.7304 5.40234 12.7157 5.50781 12.9384C5.5752 13.079 5.5459 13.2167 5.41699 13.3427L5.31445 13.4452L3.43359 13.4423C1.87207 13.4423 1.52637 13.4335 1.3916 13.3983Z" fill="rgb(0,0,0)" fill-rule="nonzero" transform="matrix(1,0,0,-1,0.0146484,14.9686)" />
			</g>
		</g>
	</g>
</svg>
